<svg xmlns="http://www.w3.org/2000/svg" width="720" height="300" viewBox="0 0 720 300">
  <rect x="0" y="0" width="720" height="300" rx="16" fill="#FFFFFF" />
  <rect x="2" y="2" width="716" height="296" rx="14" fill="none" stroke="#D7E3F3" stroke-width="3" />

  <circle cx="360" cy="92" r="44" fill="#F2F6FC" stroke="#D7E3F3" stroke-width="2" />

  <!-- Heart + pulse icon -->
  <g transform="translate(360,92)">
    <path d="M 0,18 C -18,4 -26,-8 -14,-18 C -6,-24 0,-18 0,-12 C 0,-18 6,-24 14,-18 C 26,-8 18,4 0,18 Z"
          fill="none" stroke="#005CB9" stroke-width="4" stroke-linejoin="round" />
    <path d="M -20,-2 L -8,-2 L -3,-14 L 3,10 L 8,-2 L 20,-2"
          fill="none" stroke="#FF5C00" stroke-width="3" stroke-linecap="round" stroke-linejoin="round" />
  </g>

  <text x="360" y="196" text-anchor="middle" dominant-baseline="central"
        font-family="Segoe UI" font-weight="700" font-size="32" fill="#12376D">Healthcare</text>
  <rect x="325" y="222" width="70" height="4" rx="2" fill="#FF5C00" />
</svg>
